<?xml version="1.0" encoding="utf-8"?>
<!-- Generator: Adobe Illustrator 15.0.0, SVG Export Plug-In . SVG Version: 6.00 Build 0)  -->
<!DOCTYPE svg PUBLIC "-//W3C//DTD SVG 1.1 Tiny//EN" "http://www.w3.org/Graphics/SVG/1.1/DTD/svg11-tiny.dtd">
<svg version="1.1" baseProfile="tiny" id="Layer_1" xmlns="http://www.w3.org/2000/svg" xmlns:xlink="http://www.w3.org/1999/xlink"
	 x="0px" y="0px" width="220.498px" height="444.402px" viewBox="0 0 220.498 444.402" xml:space="preserve">
<g>
	<circle fill="#70CDDD" cx="166.321" cy="426.235" r="4.049"/>
	<polygon fill="#70CDDD" points="115.634,33.371 120.9,35.603 116.344,39.024 111.783,42.455 111.076,36.796 110.369,31.139 	"/>
	<path fill="#609DC1" d="M199.07,74.802L76.592,4.089c-5.974-3.449-11.388-3.77-15.297-1.497L49.233,9.628
		c3.909-2.272,9.323-1.951,15.298,1.497L187.009,81.84c11.872,6.853,21.467,23.472,21.429,37.113l-0.835,309.277
		c-0.019,6.777-2.412,11.546-6.271,13.788l12.062-7.036c3.859-2.243,6.252-7.012,6.271-13.789l0.834-309.276
		C220.537,98.275,210.943,81.657,199.07,74.802"/>
	<path fill="#AADEE9" d="M187.262,81.714L64.783,11.002c-5.974-3.449-11.387-3.77-15.296-1.497l-4.452,2.644
		c3.909-2.272,9.322-1.952,15.297,1.498l122.477,70.712c11.873,6.854,21.469,23.473,21.43,37.114l-0.834,309.277
		c-0.02,6.777-2.412,11.546-6.271,13.789l4.452-2.644c3.858-2.243,6.252-7.012,6.271-13.789l0.835-309.276
		C208.729,105.188,199.135,88.569,187.262,81.714"/>
	<path fill="#73ACCC" d="M184.397,82.771c11.873,6.854,21.468,23.473,21.429,37.114l-0.834,309.277
		c-0.039,13.643-9.696,19.146-21.568,12.291L60.945,370.74c-11.873-6.854-21.467-23.473-21.429-37.115L40.352,24.35
		c0.039-13.643,9.696-19.147,21.568-12.293L184.397,82.771z"/>
	<path fill="#9ACAE5" d="M178.34,87.556c10.785,6.227,19.501,21.323,19.466,33.716l-0.758,299.282
		c-0.036,12.393-8.808,17.392-19.593,11.165l-112.809-65.13c-10.785-6.228-19.502-21.323-19.466-33.717l0.757-299.28
		c0.035-12.394,8.809-17.394,19.594-11.167L178.34,87.556z"/>
	<polygon fill="#DFEEF7" points="192.145,132.643 192.145,398.114 50.841,316.533 50.841,51.061 	"/>
	<polygon fill="#73ACCC" points="217.623,173.648 217.623,205.088 213.764,207.32 213.764,175.881 216.262,174.438 	"/>
	<polygon fill="#4D8EB4" points="216.263,174.438 216.263,204.639 213.764,206.082 213.764,175.88 	"/>
	<polygon fill="#73ACCC" points="217.623,219.852 217.623,343.722 211.545,347.239 211.545,223.369 215.479,221.096 	"/>
	<polygon fill="#4D8EB4" points="215.479,221.096 215.479,343.015 211.545,345.288 211.545,223.369 	"/>
	<path fill="#73ACCC" d="M186.963,73.637c-0.121,0.245-0.348,0.481-0.685,0.674c-1.042,0.608-2.749,0.604-3.801,0
		c-0.342-0.197-0.573-0.434-0.693-0.685c-0.255-0.525-0.029-1.109,0.675-1.519c1.052-0.612,2.753-0.612,3.809,0
		C186.982,72.522,187.219,73.11,186.963,73.637"/>
	<path fill="#4D8EB4" d="M186.963,73.637c-0.121,0.245-0.348,0.481-0.685,0.674c-1.042,0.608-2.749,0.604-3.801,0
		c-0.342-0.197-0.573-0.434-0.693-0.685c0.12-0.245,0.343-0.481,0.675-0.675c1.052-0.612,2.753-0.612,3.809,0
		C186.605,73.149,186.842,73.385,186.963,73.637"/>
	<path fill="#73ACCC" d="M93.119,18.911c-0.121,0.246-0.348,0.481-0.686,0.676c-1.041,0.607-2.748,0.602-3.799,0
		c-0.342-0.198-0.574-0.435-0.693-0.686c-0.256-0.525-0.029-1.108,0.674-1.518c1.053-0.613,2.754-0.613,3.809,0
		C93.139,17.798,93.375,18.386,93.119,18.911"/>
	<path fill="#4D8EB4" d="M93.119,18.911c-0.121,0.246-0.348,0.481-0.686,0.676c-1.041,0.607-2.748,0.602-3.799,0
		c-0.342-0.198-0.574-0.435-0.693-0.686c0.119-0.245,0.342-0.482,0.674-0.674c1.053-0.613,2.754-0.613,3.809,0
		C92.762,18.424,92.998,18.66,93.119,18.911"/>
	<path fill="#73ACCC" d="M110.731,28.126c-0.229,0.465-0.657,0.913-1.298,1.279c-1.974,1.151-5.209,1.143-7.201,0
		c-0.649-0.376-1.088-0.822-1.316-1.298c-0.484-0.996-0.055-2.103,1.279-2.879c1.992-1.161,5.219-1.161,7.221,0
		C110.77,26.014,111.217,27.129,110.731,28.126"/>
	<path fill="#4D8EB4" d="M110.731,28.126c-0.229,0.465-0.657,0.913-1.298,1.279c-1.974,1.151-5.209,1.143-7.201,0
		c-0.649-0.376-1.088-0.822-1.316-1.298c0.229-0.467,0.648-0.914,1.279-1.28c1.992-1.159,5.219-1.159,7.221,0
		C110.055,27.202,110.503,27.65,110.731,28.126"/>
	<path fill="#609DC1" d="M134.54,78.383c1.334,0.77,2.409,2.63,2.404,4.164c-0.005,1.532-1.086,2.153-2.42,1.384l-26.075-15.054
		c-1.334-0.771-2.412-2.64-2.408-4.172c0.005-1.533,1.09-2.146,2.425-1.376L134.54,78.383z"/>
	<path fill="#609DC1" d="M149.127,86.805c1.334,0.771,2.409,2.631,2.404,4.163c-0.004,1.534-1.086,2.155-2.42,1.384l-5.509-3.181
		c-1.335-0.77-2.413-2.638-2.409-4.171s1.091-2.146,2.424-1.376L149.127,86.805z"/>
	<path fill="#609DC1" d="M94.871,52.805c2.5,1.441,4.518,4.934,4.509,7.805c-0.008,2.872-2.039,4.029-4.538,2.586
		c-2.494-1.439-4.513-4.936-4.505-7.808C90.345,52.518,92.377,51.364,94.871,52.805"/>
	<path fill="#9ACAE5" d="M94.867,54.771c1.553,0.896,2.807,3.066,2.803,4.851c-0.006,1.785-1.269,2.505-2.821,1.606
		c-1.55-0.894-2.806-3.067-2.8-4.852C92.054,54.592,93.316,53.875,94.867,54.771"/>
	<path fill="#73ACCC" d="M119.654,366.321c3.994,2.305,7.221,7.896,7.207,12.483l-0.02,7.426c-0.014,4.59-3.262,6.44-7.256,4.135
		l-15.235-8.797c-3.989-2.304-7.216-7.893-7.203-12.481l0.021-7.427c0.014-4.588,3.261-6.438,7.25-4.137L119.654,366.321z"/>
	<path fill="#9ACAE5" d="M117.876,368.094c3.065,1.77,5.542,6.06,5.532,9.582l-0.016,5.699c-0.011,3.522-2.504,4.943-5.568,3.173
		l-11.694-6.751c-3.062-1.769-5.538-6.059-5.528-9.581l0.017-5.698c0.009-3.522,2.502-4.943,5.563-3.176L117.876,368.094z"/>
	<path fill="#609DC1" d="M68.605,115.768L21.418,88.524c-2.155-1.245-4.107-1.359-5.516-0.541L2.084,96.015
		c1.408-0.819,3.358-0.704,5.515,0.54l47.187,27.244c4.285,2.475,7.744,8.472,7.73,13.396l-0.154,54.222
		c-0.007,2.444-0.869,4.166-2.262,4.975l13.818-8.031c1.393-0.809,2.256-2.529,2.262-4.974l0.154-54.222
		C76.348,124.238,72.891,118.242,68.605,115.768"/>
	<path fill="#73ACCC" d="M54.787,123.799L7.599,96.555c-4.286-2.475-7.767-0.482-7.78,4.441l-0.152,54.223
		c-0.016,4.917,3.441,10.914,7.729,13.387l14.434,8.334l17.533,10.123l0,0l15.221,8.787c4.286,2.475,7.766,0.483,7.779-4.434
		l0.154-54.222C62.529,132.269,59.072,126.273,54.787,123.799z"/>
	<g>
		<path fill="#609DC1" d="M162.605,195.768l-47.188-27.243c-2.155-1.245-4.107-1.359-5.516-0.541l-13.818,8.031
			c1.408-0.819,3.358-0.704,5.515,0.54l47.187,27.244c4.285,2.475,7.744,8.472,7.73,13.396l-0.154,54.222
			c-0.007,2.444-0.869,4.166-2.262,4.975l13.818-8.031c1.393-0.809,2.256-2.529,2.262-4.974l0.154-54.222
			C170.348,204.238,166.891,198.242,162.605,195.768"/>
		<path fill="#73ACCC" d="M148.787,203.799l-47.188-27.244c-4.286-2.475-7.767-0.482-7.78,4.441l-0.152,54.223
			c-0.016,4.917,3.441,10.914,7.729,13.387l14.434,8.334l17.533,10.123l0,0l15.221,8.787c4.286,2.475,7.766,0.483,7.779-4.434
			l0.154-54.222C156.529,212.269,153.072,206.273,148.787,203.799z"/>
		<g>
			<g>
				<path fill="#0D2D4D" d="M111.9,209.44l21.285,13.156c-0.665-3.775-2.57-8.341-5.145-11.774l2.094-2.74
					c0.155-0.202,0.115-0.605-0.09-0.891c-0.207-0.286-0.5-0.355-0.656-0.153l-2.129,2.776c-1.436-1.729-3.045-3.199-4.744-4.248
					c-1.641-1.016-3.195-1.534-4.59-1.607l-2.256-5.691c-0.158-0.396-0.451-0.695-0.657-0.661c-0.204,0.031-0.244,0.378-0.086,0.777
					l2.214,5.603C114.503,204.186,112.561,206.484,111.9,209.44z"/>
				<path fill="#0D2D4D" d="M137.787,228.894c-1.424-0.88-2.764-0.306-2.76,1.427l0.032,12.551c0.005,1.734,1.352,3.969,2.776,4.849
					c1.424,0.879,2.764,0.309,2.76-1.427l-0.031-12.549C140.559,232.011,139.211,229.774,137.787,228.894z"/>
				<path fill="#0D2D4D" d="M107.338,210.075c-1.424-0.88-2.766-0.306-2.76,1.428l0.031,12.55c0.005,1.734,1.353,3.969,2.776,4.848
					c1.424,0.88,2.765,0.308,2.761-1.426l-0.033-12.551C110.109,213.19,108.763,210.956,107.338,210.075z"/>
				<path fill="#0D2D4D" d="M112.014,237.542l2.769,1.71l0.022,8.853c0.004,1.734,1.352,3.971,2.775,4.851
					c1.426,0.882,2.766,0.306,2.762-1.428l-0.023-8.854l4.614,2.852l0.022,8.853c0.004,1.735,1.352,3.97,2.775,4.851
					c1.424,0.88,2.765,0.305,2.761-1.429l-0.022-8.854l2.769,1.711l-0.069-26.951l-21.223-13.117L112.014,237.542z"/>
			</g>
			<path fill="#73ACCC" d="M128.202,214.277c0.001,0.684-0.452,0.955-1.015,0.609c-0.563-0.35-1.02-1.184-1.021-1.866
				c-0.002-0.685,0.453-0.958,1.016-0.61S128.199,213.593,128.202,214.277z"/>
			<path fill="#73ACCC" d="M118.717,208.417c0.002,0.683-0.451,0.954-1.014,0.608c-0.563-0.35-1.02-1.184-1.021-1.866
				c-0.001-0.686,0.452-0.959,1.016-0.61C118.259,206.895,118.716,207.73,118.717,208.417z"/>
		</g>
	</g>
	<g>
		<path fill="#609DC1" d="M75.605,233.768l-47.188-27.243c-2.155-1.245-4.107-1.359-5.516-0.541l-13.818,8.031
			c1.408-0.819,3.358-0.704,5.515,0.54l47.187,27.244c4.285,2.475,7.744,8.472,7.73,13.396l-0.154,54.222
			c-0.007,2.444-0.869,4.166-2.262,4.975l13.818-8.031c1.393-0.809,2.256-2.529,2.262-4.974l0.154-54.222
			C83.348,242.238,79.891,236.242,75.605,233.768"/>
		<path fill="#73ACCC" d="M61.787,241.799l-47.188-27.244c-4.286-2.475-7.767-0.482-7.78,4.441l-0.152,54.223
			c-0.016,4.917,3.441,10.914,7.729,13.387l14.434,8.334l17.533,10.123l0,0l15.221,8.787c4.286,2.475,7.766,0.483,7.779-4.434
			l0.154-54.222C69.529,250.269,66.072,244.273,61.787,241.799z"/>
		<polygon fill="#0D2D4D" points="32.205,262.094 17.576,254.458 17.627,241.032 32.264,246.741 		"/>
		<polygon fill="#0D2D4D" points="53.433,273.172 34.132,263.099 34.189,247.706 53.5,255.309 		"/>
		<polygon fill="#0D2D4D" points="32.14,279.476 17.518,269.87 17.568,256.443 32.198,264.079 		"/>
		<polygon fill="#0D2D4D" points="53.357,293.175 34.064,280.822 34.124,265.084 53.425,275.157 		"/>
	</g>
	<g>
		<path fill="#0D2D4D" d="M30.992,129.634c0,0-0.125-8.367,8.133-7.419C39.125,122.215,38.707,131.029,30.992,129.634z"/>
		<path fill="#0D2D4D" d="M44.045,139.655c0,0-5.823,1.555-4.699,10.441c0,0,0.704,4.172,3.661,7.059c0,0-2.63,7.743-8.001,8.958
			c0,0-0.588,1.219-5.49-3.478c0,0-1.884-1.365-4.604-0.957c-2.721,0.409-4.494,0.435-7.193-6.123
			c-2.701-6.556-6.894-26.625,5.008-27.965c0,0,2.936-0.489,6.486,3.322c0,0,1.561,1.891,3.551,1.277
			C34.753,131.573,40.791,131.526,44.045,139.655z"/>
	</g>
</g>
</svg>
